<?xml version="1.0" encoding="UTF-8"?>
<svg width="500" height="500" version="1.1" viewBox="0 0 700 600" xmlns="http://www.w3.org/2000/svg" xmlns:xlink="http://www.w3.org/1999/xlink">
 
 <g>
  <path d="m494.99 49.758c-28.395-6.2422-59.598 8.2695-77.664 36.074-13.93 21.453-23.215 46.125-29.402 72.078-10.156-22.512-32.102-39.48-63.703-48.355-55.539-15.605-132.43-1.9336-158.39 43.277-21.555 37.551-2.3281 79.648 20.684 104.28 17 18.199 39.434 32.156 65.406 41.32h-23.668c-3.4375 0-6.2227 2.7812-6.2227 6.2227v30.375c0 3.4375 2.7812 6.2227 6.2227 6.2227h14.605l24.527 165.11c0.45703 3.0508 3.0742 5.3125 6.1562 5.3125h182.83c3.082 0 5.6992-2.2617 6.1562-5.3125l24.527-165.11h14.605c3.4375 0 6.2227-2.7812 6.2227-6.2227v-30.375c0-3.4375-2.7812-6.2227-6.2227-6.2227h-41.723c15.957-10.352 31.039-26.805 45.074-49.309 29.359-47.086 43.168-100.98 36.922-144.17-4.1914-29.027-21.738-49.66-46.938-55.199zm-299.38 198.86c-20.113-21.535-37.156-57.926-18.984-89.59 22.719-39.586 94.246-51.535 144.23-37.492 18.684 5.2422 61.879 22.41 60.984 68.406-0.95703 6.668-1.75 13.367-2.4062 20.074-9.8281 2.582-18.961 8.9336-24.984 13.945-4.2031-10.496-9.9375-20.762-17.656-29.973 5.0391-5.6719 16.34-16.52 33.828-22.941 3.2266-1.1836 4.8789-4.7578 3.6953-7.9844-1.1836-3.2188-4.7656-4.8789-7.9844-3.6953-19.262 7.0742-32.012 18.816-38.277 25.719-22.316-20.402-53.5-28.988-92.957-25.227-3.4219 0.32031-5.9297 3.3594-5.6016 6.7812 0.32031 3.4141 3.293 5.9961 6.7812 5.6016 37.809-3.5898 67.012 4.8203 86.758 25.027 2.1328 2.1836 4.1055 4.4766 5.9531 6.8438-16.203-3.707-42.168-6.1094-70.414 5.3164-3.1836 1.2891-4.7227 4.9141-3.4336 8.1016 0.97656 2.418 3.3047 3.8906 5.7656 3.8906 0.77734 0 1.5664-0.14453 2.332-0.45703 35.473-14.34 67.758-3.918 75.754-0.875 5.6992 11.426 9.1875 23.621 11.273 35.09-12.078-5.6641-33.613-12.055-67.367-9.7578-3.4336 0.23828-6.0156 3.207-5.7852 6.6367 0.24219 3.4375 3.3008 5.9258 6.6367 5.7852 42.082-2.9102 62.84 8.75 68.605 12.723 1.1055 11.977 0.88672 22.027 0.55859 27.867h-30.527c-52.473-1.2656-98.098-19.117-126.78-49.816zm181.61 49.816h-11.789c0.66406-11.68 0.82031-36.301-6.6094-61.75 4.3359-4.0508 11.75-9.9375 19.473-13.141-1.8164 25.754-1.7734 51.242-1.0742 74.891zm73.785 200.79h-172.09l-23.465-157.97h219.02zm44.434-188.35v17.93l-260.96 0.003906v-17.93l88.98-0.003906c1.75 0.035156 3.4883 0.10938 5.25 0.10938 2.5391 0 5.0977-0.035156 7.6641-0.10938zm-0.98438-68.34c-20.996 33.664-43.867 52.461-67.977 55.898h-25.555c0.46484-10.637 2.0508-33.828 7.3672-60.855 3.1914-3.2773 17.328-15 57.414-16.156 3.4336-0.10156 6.1367-2.9648 6.0391-6.4062-0.097656-3.4336-2.8555-5.9297-6.4062-6.0391-26.238 0.76172-42.836 5.7656-53.102 10.891 3.4766-13.957 7.9961-28.355 13.891-42.145 2.957-2.7969 16.988-14.094 56.602-20.859 3.3906-0.57813 5.668-3.793 5.0859-7.1758-0.57031-3.3828-3.7734-5.668-7.1758-5.0859-20.156 3.4375-34.297 8.0312-44.184 12.414 14.824-25.77 35.754-46.832 65.438-54.445 3.3281-0.85547 5.3359-4.2461 4.4844-7.5703-0.85547-3.3359-4.2539-5.3477-7.5703-4.4844-87.254 22.379-105.62 142.65-109.48 192.57-0.97266-63.695 4.2656-137.84 38.449-190.48 15.25-23.496 41.199-35.828 64.551-30.703 20.227 4.4414 33.82 20.781 37.305 44.824 5.832 40.367-7.3203 91.137-35.172 135.8z"/>

 </g>
</svg>
